<svg xmlns="http://www.w3.org/2000/svg" xmlns:xlink="http://www.w3.org/1999/xlink" width="28" height="28" viewBox="0 0 28 28"><defs><clipPath id="a"><circle cx="14" cy="14" r="14" transform="translate(0 -0.052)" fill="none"/></clipPath></defs><g transform="translate(0 0.052)" clip-path="url(#a)"><g transform="translate(-3.513 -2.795)"><rect width="33.537" height="33.258" transform="translate(0.718)" fill="#00247d"/><path d="M33.28,24.462,17.23,14.848,1.179,24.462l-1.436-2.4L14.51,13.22-.257,4.374l1.436-2.4L17.23,11.591,33.28,1.977l1.436,2.4L19.949,13.22l14.767,8.846Z" transform="translate(0.257 3.549)" fill="#fff"/><g transform="translate(2.674 1.258)"><path d="M15.512.45V31.472M.7,16.1H30.324" transform="translate(-0.7 -0.45)"/><path d="M19.7,31.472H11.32V20.293H.7V11.909H11.32V.45H19.7V11.909h10.62v8.384H19.7Z" transform="translate(-0.7 -0.45)" fill="#fff"/></g><g transform="translate(2.674 1.258)"><path d="M15.512.45V31.472M.7,16.1H30.324" transform="translate(-0.7 -0.45)"/><path d="M17.608,31.471H13.416V18.2H.7V14H13.416V.45h4.192V14H30.324V18.2H17.608Z" transform="translate(-0.7 -0.45)" fill="#cf142b"/></g></g></g></svg>